<!-- <svg width="65" height="65" fill="none" stroke="currentColor" stroke-linecap="round" stroke-linejoin="round" stroke-width="1.5" viewBox="0 0 24 24" xmlns="http://www.w3.org/2000/svg">
<path d="M12.31 15.75 16.032 12 12.31 8.25"></path>
<path d="M15.514 12H7.97"></path>
<path d="M12 21c4.969 0 9-4.031 9-9s-4.031-9-9-9-9 4.031-9 9 4.031 9 9 9Z"></path>
</svg> -->
<svg width="65" height="65" fill="none" stroke="currentColor" stroke-linecap="round" stroke-linejoin="round" stroke-width="1.5" viewBox="0 0 24 24" xmlns="http://www.w3.org/2000/svg">
<path d="M18 10.5v8.625A1.875 1.875 0 0 1 16.125 21H4.875A1.875 1.875 0 0 1 3 19.125V7.875A1.875 1.875 0 0 1 4.875 6h7.85"></path>
<path d="M15.75 3H21v5.25"></path>
<path d="M10.5 13.5 20.625 3.375"></path>
</svg>